<svg xmlns="http://www.w3.org/2000/svg" viewBox="0 0 635.63 155.45"><defs><style>.cls-1{fill:#ff931e;}</style></defs><title>Asset 1</title><g id="Layer_2" data-name="Layer 2"><g id="Layer_1-2" data-name="Layer 1"><path d="M268.85,135c2.55,4.35.71,7.49-4.39,7.49h-8.1c-3.45,0-5.7-1.13-7.35-4.13l-17.85-28.87h-5.61v26.73c0,4.2-2.38,6.27-6.58,6.27h-6.45c-4,0-6-2.07-6-6.27V42.28c0-4,1.92-5.83,6-5.83H219c4.2,0,6.58,1.78,6.58,5.83V93.45h5.16l15.9-22.8a7.84,7.84,0,0,1,7.5-4.2h7.2c5.1,0,6.94,3.22,4.09,7.26l-18.86,26.46v.3Zm50.87-70.75c-15.45,0-24,9.23-27.28,16.23h-.3a19.49,19.49,0,0,0,.41-3.52V72.28c0-4-2.21-5.83-6.26-5.83h-5.85c-4,0-5.89,1.78-5.89,5.83v63.9c0,4.2,1.84,6.27,5.89,6.27H287c4,0,6.51-2.07,6.51-6.27V106.63c0-13.8,8.53-25,22-25,9.6,0,12,6.3,12,15.6v39c0,4.2,1.94,6.27,6,6.27H340c4.2,0,6.56-2.07,6.56-6.27V93.28C346.54,73,336.67,64.22,319.72,64.22Zm115.67,40c0,23.55-18.9,40-42.15,40s-42-16.5-42-40,18.75-40,42-40S435.39,80.83,435.39,104.23Zm-19.35,0c0-14.1-10.35-23.85-22.8-23.85s-22.65,9.75-22.65,23.85,10.2,23.85,22.65,23.85S416,118.48,416,104.23ZM532.61,63.94c-12,0-21.93,8.51-26,15.51h-.3C503.18,69.45,495.53,64,484,64c-12,0-21.3,8.47-25,16.47h-.3s-.09-1.87-.09-3.52V72.28c0-4-1.71-5.83-5.76-5.83h-5.85c-4,0-6.39,1.78-6.39,5.83v63.9c0,4.2,2.34,6.27,6.39,6.27h6.6c4,0,6-2.07,6-6.27v-28c0-12.75,6.3-26.55,19.8-26.55,9,0,10.2,7,10.2,15.3v39.3c0,4.2,2.39,6.27,6.44,6.27h6.6c4,0,6-2.07,6-6.27v-28c0-13.35,6.6-26.55,19.5-26.55,8.85,0,10.5,6.6,10.5,15.3v39.3c0,4.2,2.29,6.27,6.49,6.27h6.45c4,0,6.06-2.07,6.06-6.27V93.28C557.54,73.18,548.51,63.94,532.61,63.94ZM629,107.45H582.39c1.2,13,11.4,20.81,22.95,20.81a31.56,31.56,0,0,0,16.5-5.14c3.75-1.8,6.45-1.35,8.4,2.1l1.8,3c1.8,3.45,1.2,6.46-2.1,8.41A48.34,48.34,0,0,1,604,144.3c-25.35,0-41.1-18.28-41.1-40,0-23.55,15.9-40,38.85-40,21.75,0,33.9,15.54,33.9,36.54A6.79,6.79,0,0,1,629,107.45Zm-12.3-12c-.3-11-6.75-16.95-15.45-16.95-9.75,0-16.65,6.95-18.45,16.95Z"/><path class="cls-1" d="M106.12,87.45H65.51c-.73,0-1,.83-1,1.56v66.44h43V89A1.64,1.64,0,0,0,106.12,87.45ZM95.92,130a5.26,5.26,0,1,1,5.26-5.26A5.26,5.26,0,0,1,95.92,130Z"/><path class="cls-1" d="M169.23,76.15c-3.07-3.07-8.55-3-14.49-.49,0-8.58-58.39-71.23-58.39-71.23a14.74,14.74,0,0,0-21.08,0S16.92,67.08,16.89,75.66C11,73.12,5.48,73.08,2.4,76.15-2.75,81.3.63,93.2,10.16,102.73a57.89,57.89,0,0,0,6.38,5.38v33.14c0,8,6.8,14.19,14.76,14.19H56.54V87c0-4,2.93-7.56,7-7.56h44.6A7.63,7.63,0,0,1,115.54,87v68.44h24.78a14.06,14.06,0,0,0,14.22-14.19V108.12a59.42,59.42,0,0,0,6.65-5.38C170.73,93.2,174.38,81.3,169.23,76.15Z"/></g></g></svg>